<svg width="3003" height="3003" xmlns="http://www.w3.org/2000/svg" xmlns:svg="http://www.w3.org/2000/svg" xmlns:xlink="http://www.w3.org/1999/xlink">
 <!-- Created with SVG-edit - http://svg-edit.googlecode.com/ -->
 <g display="none">
  <title>Layer 1</title>
  <text fill="#000000" stroke-width="0" x="539.55421" y="1785.30414" id="svg_20" font-size="24" font-family="serif" text-anchor="middle" xml:space="preserve" transform="matrix(7.0232454569232905,0,0,7.0232454569232905,-2249.6256798329737,-10211.489150980788) " stroke="#000000">T = 447,933.7664*S</text>
  <g id="svg_6" stroke="null">
   <text fill="#000000" stroke-width="0" x="513.75171" y="1605.3053" id="svg_3" font-size="24" font-family="serif" text-anchor="middle" xml:space="preserve" transform="matrix(7.0232454569232905,0,0,7.0232454569232905,-2249.6256798329737,-10211.489150980788) " stroke="#000000">T = S * S/T</text>
   <text fill="#000000" stroke-width="0" x="573.68921" y="1590.10218" font-size="24" font-family="serif" text-anchor="middle" xml:space="preserve" id="svg_4" transform="matrix(7.0232454569232905,0,0,7.0232454569232905,-2249.6256798329737,-10211.489150980788) " stroke="#000000">2</text>
   <text fill="#000000" stroke-width="0" x="550.01733" y="1589.3678" font-size="24" font-family="serif" text-anchor="middle" xml:space="preserve" id="svg_5" transform="matrix(7.0232454569232905,0,0,7.0232454569232905,-2249.6256798329737,-10211.489150980788) " stroke="#000000">2</text>
   <text fill="#000000" stroke-width="0" x="595.75171" y="1601.3053" id="svg_7" font-size="24" font-family="serif" text-anchor="middle" xml:space="preserve" transform="matrix(7.0232454569232905,0,0,7.0232454569232905,-2249.6256798329737,-10211.489150980788) " stroke="#000000">*c</text>
   <text fill="#000000" stroke-width="0" x="615.48608" y="1591.10218" font-size="24" font-family="serif" text-anchor="middle" xml:space="preserve" id="svg_8" transform="matrix(7.0232454569232905,0,0,7.0232454569232905,-2249.6256798329737,-10211.489150980788) " stroke="#000000">2</text>
  </g>
  <g id="svg_15" stroke="null">
   <g id="svg_17" stroke="null">
    <text fill="#000000" stroke-width="0" x="517.2764" y="1730.95821" id="svg_12" font-size="24" font-family="serif" text-anchor="middle" xml:space="preserve" transform="matrix(7.0232454569232905,0,0,7.0232454569232905,-2249.6256798329737,-10211.489150980788) " stroke="#000000">T=S*V</text>
    <text fill="#000000" stroke-width="0" x="566.2764" y="1730.95821" id="svg_13" font-size="24" font-family="serif" text-anchor="middle" xml:space="preserve" transform="matrix(7.0232454569232905,0,0,7.0232454569232905,-2249.6256798329737,-10211.489150980788) " stroke="#000000">c</text>
    <text fill="#000000" stroke-width="0" x="544.2764" y="1713.95821" id="svg_14" font-size="24" font-family="serif" text-anchor="middle" xml:space="preserve" transform="matrix(7.0232454569232905,0,0,7.0232454569232905,-2249.6256798329737,-10211.489150980788) " stroke="#000000">3</text>
    <text fill="#000000" stroke-width="0" x="573.2764" y="1713.95821" id="svg_16" font-size="24" font-family="serif" text-anchor="middle" xml:space="preserve" transform="matrix(7.0232454569232905,0,0,7.0232454569232905,-2249.6256798329737,-10211.489150980788) " stroke="#000000">____</text>
   </g>
   <text fill="#000000" stroke-width="0" x="576.2764" y="1722.95821" font-size="24" font-family="serif" text-anchor="middle" xml:space="preserve" id="svg_19" transform="matrix(7.0232454569232905,0,0,7.0232454569232905,-2249.6256798329737,-10211.489150980788) " stroke="#000000">2</text>
  </g>
  <g id="svg_21" stroke="null">
   <text fill="#000000" stroke-width="0" x="534.10671" y="1670.08655" id="svg_9" font-size="24" font-family="serif" text-anchor="middle" xml:space="preserve" transform="matrix(7.0232454569232905,0,0,7.0232454569232905,-2249.6256798329737,-10211.489150980788) " stroke="#000000">T= S c</text>
   <text fill="#000000" stroke-width="0" x="520.96608" y="1651.88343" id="svg_10" font-size="24" font-family="serif" text-anchor="middle" xml:space="preserve" transform="matrix(7.0232454569232905,0,0,7.0232454569232905,-2249.6256798329737,-10211.489150980788) " stroke="#000000">3</text>
   <text fill="#000000" stroke-width="0" x="553.10671" y="1650.08655" font-size="24" font-family="serif" text-anchor="middle" xml:space="preserve" id="svg_11" transform="matrix(7.0232454569232905,0,0,7.0232454569232905,-2249.6256798329737,-10211.489150980788) " stroke="#000000">3</text>
   <text fill="#000000" stroke-width="0" x="571.10671" y="1658.08655" font-size="24" font-family="serif" text-anchor="middle" xml:space="preserve" id="svg_18" transform="matrix(7.0232454569232905,0,0,7.0232454569232905,-2249.6256798329737,-10211.489150980788) " stroke="#000000">2</text>
  </g>
  <g id="svg_22" stroke="null">
   <text fill="#000000" stroke-width="0" x="532.93702" y="1544.87722" id="svg_1" font-size="24" font-family="serif" text-anchor="middle" xml:space="preserve" transform="matrix(7.0232454569232905,0,0,7.0232454569232905,-2249.6256798329737,-10211.489150980788) " stroke="#000000">E = m c</text>
   <text fill="#000000" stroke-width="0" x="577.93702" y="1533.87722" id="svg_2" font-size="24" font-family="serif" text-anchor="middle" xml:space="preserve" transform="matrix(7.0232454569232905,0,0,7.0232454569232905,-2249.6256798329737,-10211.489150980788) " stroke="#000000">2</text>
  </g>
 </g>
 <g>
  <title>Layer 2</title>
  <image transform="rotate(-45 1501.6503906250002,1501.6503906250002) " stroke="null" xlink:href="http://www.modernvastu.com/uploads/1/1/8/1/11819849/1334912801.png" opacity="0.5" id="svg_34" height="2123.65425" width="2123.65425" y="439.82319" x="439.82325"/>
  <image transform="rotate(-45 1485.0491943359373,1344.8629150390625) " stroke="null" xlink:href="http://4.bp.blogspot.com/-EMEMPj2GBOI/USc-5EXvN7I/AAAAAAAABxM/XlLpPNR5LPs/s320/0_0_0_0_229_230_csupload_50789620.jpg" opacity="0.35" id="svg_37" height="1876.40098" width="1868.24271" y="406.66242" x="550.92794"/>
 </g>
 <g display="none">
  <title>Layer 3</title>
  <g stroke="null" opacity="0.75" id="svg_44">
   <rect stroke="#000000" transform="matrix(0.6110776487937917,0.6217982111710382,-0.6217982111710382,0.6110776487937917,1087.0367061166603,-672.9694606601263) " opacity="0.5" id="svg_23" height="2127.47238" width="2127.47238" y="235.72611" x="917.38834" stroke-width="5" fill="none"/>
   <g stroke="null" id="svg_43">
    <rect stroke="#000000" transform="matrix(0.6110776487937917,0.6217982111710382,-0.6217982111710382,0.6110776487937917,466.11927699079564,-945.0626226559561) " id="svg_25" opacity="0.5" height="712.16467" width="712.16467" y="-61.9323" x="1641.08909" stroke-width="5" fill="none"/>
    <rect stroke="#000000" transform="matrix(0.6110776487937917,0.6217982111710382,-0.6217982111710382,0.6110776487937917,909.9439611143687,-1122.0795251332452) " id="svg_26" opacity="0.5" height="712.16467" width="712.16467" y="443.58694" x="2137.74716" stroke-width="5" fill="none"/>
    <rect stroke="#000000" transform="matrix(0.6110776487937917,0.6217982111710382,-0.6217982111710382,0.6110776487937917,1355.823051458313,-1301.708546992883) " id="svg_27" opacity="0.5" height="712.16467" width="712.16467" y="950.41809" x="2639.15614" stroke-width="5" fill="none"/>
    <rect stroke="#000000" transform="matrix(0.6110776487937917,0.6217982111710382,-0.6217982111710382,0.6110776487937917,644.5253090646936,-496.0862802489638) " id="svg_28" opacity="0.5" height="712.16467" width="712.16467" y="439.58026" x="1129.32038" stroke-width="5" fill="none"/>
    <rect stroke="#000000" transform="matrix(0.6110776487937917,0.6217982111710382,-0.6217982111710382,0.6110776487937917,822.1267319413668,-50.702586579488326) " id="svg_29" opacity="0.5" height="712.16467" width="712.16467" y="937.9318" x="622.00404" stroke-width="5" fill="none"/>
    <rect stroke="#000000" id="svg_39" transform="matrix(0.6110776487937917,0.6217982111710382,-0.6217982111710382,0.6110776487937917,1532.06851842231,-855.0096968281811) " opacity="0.5" height="712.16467" width="712.16467" y="1447.66912" x="2129.26313" stroke-width="5" fill="none"/>
    <rect stroke="#000000" id="svg_40" transform="matrix(0.6110776487937917,0.6217982111710382,-0.6217982111710382,0.6110776487937917,1266.8553176602927,-229.86804061553832) " opacity="0.5" height="712.16467" width="712.16467" y="1443.45513" x="1122.11914" stroke-width="5" fill="none"/>
    <rect stroke="#000000" id="svg_41" transform="matrix(0.6110776487937917,0.6217982111710382,-0.6217982111710382,0.6110776487937917,1087.9898310886374,-677.6657311041918) " opacity="0.5" height="712.16467" width="712.16467" y="941.99012" x="1632.01213" stroke-width="5" fill="none"/>
    <rect stroke="#000000" id="svg_42" transform="matrix(0.6110776487937917,0.6217982111710382,-0.6217982111710382,0.6110776487937917,1712.0326273981836,-409.83225119779485) " opacity="0.5" height="712.16467" width="712.16467" y="1949.13414" x="1623.5841" stroke-width="5" fill="none"/>
   </g>
  </g>
  <g stroke="null" id="svg_45" opacity="0.75">
   <rect stroke="#000000" id="svg_46" transform="matrix(0.20282824139049774,0.2063865990198206,-0.2063865990198206,0.20282824139049774,1005.2141075706412,-787.0133970432797) " opacity="0.5" height="2127.47238" width="2127.47238" y="2941.11304" x="3254.97978" stroke-width="10" fill="none"/>
   <g stroke="null" id="svg_47">
    <rect stroke="#000000" id="svg_48" transform="matrix(0.20282824139049774,0.2063865990198206,-0.2063865990198206,0.20282824139049774,799.1198567877811,-877.3262691486991) " opacity="0.5" height="712.16467" width="712.16467" y="2643.45463" x="3978.68052" stroke-width="10" fill="none"/>
    <rect stroke="#000000" id="svg_49" transform="matrix(0.20282824139049774,0.2063865990198206,-0.2063865990198206,0.20282824139049774,946.4336725428961,-936.0815306064412) " opacity="0.5" height="712.16467" width="712.16467" y="3148.97386" x="4475.33859" stroke-width="10" fill="none"/>
    <rect stroke="#000000" id="svg_50" transform="matrix(0.20282824139049774,0.2063865990198206,-0.2063865990198206,0.20282824139049774,1094.429384619374,-995.7038039433937) " opacity="0.5" height="712.16467" width="712.16467" y="3655.80502" x="4976.74757" stroke-width="10" fill="none"/>
    <rect stroke="#000000" id="svg_51" transform="matrix(0.20282824139049774,0.2063865990198206,-0.2063865990198206,0.20282824139049774,858.3361966595351,-728.3025204710932) " opacity="0.5" height="712.16467" width="712.16467" y="3144.96718" x="3466.91181" stroke-width="10" fill="none"/>
    <rect stroke="#000000" id="svg_52" transform="matrix(0.20282824139049774,0.2063865990198206,-0.2063865990198206,0.20282824139049774,917.2854715047711,-580.4712399303974) " opacity="0.5" height="712.16467" width="712.16467" y="3643.31873" x="2959.59548" stroke-width="10" fill="none"/>
    <rect stroke="#000000" id="svg_53" transform="matrix(0.20282824139049774,0.2063865990198206,-0.2063865990198206,0.20282824139049774,1152.9285920243854,-847.435998061595) " opacity="0.5" height="712.16467" width="712.16467" y="4153.05605" x="4466.85456" stroke-width="10" fill="none"/>
    <rect stroke="#000000" id="svg_54" transform="matrix(0.20282824139049774,0.2063865990198206,-0.2063865990198206,0.20282824139049774,1064.8993093132822,-639.9396463298024) " opacity="0.5" height="712.16467" width="712.16467" y="4148.84205" x="3459.71057" stroke-width="10" fill="none"/>
    <rect stroke="#000000" id="svg_55" transform="matrix(0.20282824139049774,0.2063865990198206,-0.2063865990198206,0.20282824139049774,1005.5304677947029,-788.5721781198649) " opacity="0.5" height="712.16467" width="712.16467" y="3647.37705" x="3969.60357" stroke-width="10" fill="none"/>
    <rect stroke="#000000" id="svg_56" transform="matrix(0.20282824139049774,0.2063865990198206,-0.2063865990198206,0.20282824139049774,1212.6620871195425,-699.673175150042) " opacity="0.5" height="712.16467" width="712.16467" y="4654.52107" x="3961.17553" stroke-width="10" fill="none"/>
   </g>
  </g>
  <g id="svg_57" stroke="null" opacity="0.75">
   <rect id="svg_58" stroke="#000000" transform="matrix(0.20282824139049774,0.2063865990198206,-0.2063865990198206,0.20282824139049774,1005.2141075706412,-787.0133970432797) " opacity="0.5" height="2127.47238" width="2127.47238" y="770.33264" x="5388.33315" stroke-width="10" fill="none"/>
   <g id="svg_59" stroke="null">
    <rect id="svg_60" stroke="#000000" transform="matrix(0.20282824139049774,0.2063865990198206,-0.2063865990198206,0.20282824139049774,799.1198567877811,-877.3262691486991) " opacity="0.5" height="712.16467" width="712.16467" y="472.67423" x="6112.0339" stroke-width="10" fill="none"/>
    <rect id="svg_61" stroke="#000000" transform="matrix(0.20282824139049774,0.2063865990198206,-0.2063865990198206,0.20282824139049774,946.4336725428961,-936.0815306064412) " opacity="0.5" height="712.16467" width="712.16467" y="978.19347" x="6608.69196" stroke-width="10" fill="none"/>
    <rect id="svg_62" stroke="#000000" transform="matrix(0.20282824139049774,0.2063865990198206,-0.2063865990198206,0.20282824139049774,1094.429384619374,-995.7038039433937) " opacity="0.5" height="712.16467" width="712.16467" y="1485.02462" x="7110.10094" stroke-width="10" fill="none"/>
    <rect id="svg_63" stroke="#000000" transform="matrix(0.20282824139049774,0.2063865990198206,-0.2063865990198206,0.20282824139049774,858.3361966595351,-728.3025204710932) " opacity="0.5" height="712.16467" width="712.16467" y="974.18679" x="5600.26519" stroke-width="10" fill="none"/>
    <rect id="svg_64" stroke="#000000" transform="matrix(0.20282824139049774,0.2063865990198206,-0.2063865990198206,0.20282824139049774,917.2854715047711,-580.4712399303974) " opacity="0.5" height="712.16467" width="712.16467" y="1472.53833" x="5092.94885" stroke-width="10" fill="none"/>
    <rect id="svg_65" stroke="#000000" transform="matrix(0.20282824139049774,0.2063865990198206,-0.2063865990198206,0.20282824139049774,1152.9285920243854,-847.435998061595) " opacity="0.5" height="712.16467" width="712.16467" y="1982.27565" x="6600.20793" stroke-width="10" fill="none"/>
    <rect id="svg_66" stroke="#000000" transform="matrix(0.20282824139049774,0.2063865990198206,-0.2063865990198206,0.20282824139049774,1064.8993093132822,-639.9396463298024) " opacity="0.5" height="712.16467" width="712.16467" y="1978.06166" x="5593.06394" stroke-width="10" fill="none"/>
    <rect id="svg_67" stroke="#000000" transform="matrix(0.20282824139049774,0.2063865990198206,-0.2063865990198206,0.20282824139049774,1005.5304677947029,-788.5721781198649) " opacity="0.5" height="712.16467" width="712.16467" y="1476.59665" x="6102.95694" stroke-width="10" fill="none"/>
    <rect id="svg_68" stroke="#000000" transform="matrix(0.20282824139049774,0.2063865990198206,-0.2063865990198206,0.20282824139049774,1212.6620871195425,-699.673175150042) " opacity="0.5" height="712.16467" width="712.16467" y="2483.74067" x="6094.52891" stroke-width="10" fill="none"/>
   </g>
  </g>
 </g>
 <g>
  <title>Layer 4</title>
  <g id="svg_106">
   <rect transform="rotate(-45 1487.4201660156252,1360.45947265625) " id="svg_70" height="1841.5144" width="1841.5144" y="439.70223" x="566.66303" opacity="0.75" stroke-linecap="null" stroke-linejoin="null" stroke-dasharray="null" stroke-width="10" stroke="#000000" fill="none"/>
   <g id="svg_81">
    <rect stroke="#000000" id="svg_71" transform="rotate(-45 1484.0623779296875,322.56661987304676) " height="370" width="370" y="137.56661" x="1299.06244" opacity="0.75" stroke-linecap="null" stroke-linejoin="null" stroke-dasharray="null" stroke-width="10" fill="none"/>
    <rect id="svg_77" stroke="#000000" transform="rotate(-45 447.4203491210936,1350.7806396484375) " height="370" width="370" y="1165.78064" x="262.42047" opacity="0.75" stroke-linecap="null" stroke-linejoin="null" stroke-dasharray="null" stroke-width="10" fill="none"/>
    <rect id="svg_78" stroke="#000000" transform="rotate(-45 708.6878051757815,1093.7271728515625) " height="370" width="370" y="908.7271" x="523.68798" opacity="0.75" stroke-linecap="null" stroke-linejoin="null" stroke-dasharray="null" stroke-width="10" fill="none"/>
    <rect id="svg_79" stroke="#000000" transform="rotate(-45 965.7412719726562,840.8876342773436) " height="370" width="370" y="655.88762" x="780.74149" opacity="0.75" stroke-linecap="null" stroke-linejoin="null" stroke-dasharray="null" stroke-width="10" fill="none"/>
    <rect id="svg_80" stroke="#000000" transform="rotate(-45 1222.7945556640623,579.6201171874999) " height="370" width="370" y="394.62012" x="1037.79495" opacity="0.75" stroke-linecap="null" stroke-linejoin="null" stroke-dasharray="null" stroke-width="10" fill="none"/>
   </g>
   <g id="svg_82">
    <rect id="svg_83" stroke="#000000" transform="rotate(-45 1741.1158447265623,583.8341064453126) " height="370" width="370" y="398.83411" x="1556.11595" opacity="0.75" stroke-linecap="null" stroke-linejoin="null" stroke-dasharray="null" stroke-width="10" fill="none"/>
    <rect id="svg_84" stroke="#000000" transform="rotate(-45 704.4738769531249,1612.048095703125) " height="370" width="370" y="1427.04813" x="519.47397" opacity="0.75" stroke-linecap="null" stroke-linejoin="null" stroke-dasharray="null" stroke-width="10" fill="none"/>
    <rect id="svg_85" stroke="#000000" transform="rotate(-45 965.7413330078124,1354.99462890625) " height="370" width="370" y="1169.9946" x="780.74148" opacity="0.75" stroke-linecap="null" stroke-linejoin="null" stroke-dasharray="null" stroke-width="10" fill="none"/>
    <rect id="svg_86" stroke="#000000" transform="rotate(-45 1222.794677734375,1102.1551513671873) " height="370" width="370" y="917.15512" x="1037.795" opacity="0.75" stroke-linecap="null" stroke-linejoin="null" stroke-dasharray="null" stroke-width="10" fill="none"/>
    <rect id="svg_87" stroke="#000000" transform="rotate(-45 1479.8480224609375,840.8876342773438) " height="370" width="370" y="655.88762" x="1294.84846" opacity="0.75" stroke-linecap="null" stroke-linejoin="null" stroke-dasharray="null" stroke-width="10" fill="none"/>
   </g>
   <g id="svg_88">
    <rect id="svg_89" stroke="#000000" transform="rotate(-45 1998.1693115234375,840.8876342773438) " height="370" width="370" y="655.88762" x="1813.16946" opacity="0.75" stroke-linecap="null" stroke-linejoin="null" stroke-dasharray="null" stroke-width="10" fill="none"/>
    <rect id="svg_90" stroke="#000000" transform="rotate(-45 961.5273437500005,1869.1015625) " height="370" width="370" y="1684.10164" x="776.52748" opacity="0.75" stroke-linecap="null" stroke-linejoin="null" stroke-dasharray="null" stroke-width="10" fill="none"/>
    <rect id="svg_91" stroke="#000000" transform="rotate(-45 1222.7947998046873,1612.048095703125) " height="370" width="370" y="1427.0481" x="1037.79499" opacity="0.75" stroke-linecap="null" stroke-linejoin="null" stroke-dasharray="null" stroke-width="10" fill="none"/>
    <rect id="svg_92" stroke="#000000" transform="rotate(-45 1479.8482666015625,1359.2086181640623) " height="370" width="370" y="1174.20862" x="1294.84851" opacity="0.75" stroke-linecap="null" stroke-linejoin="null" stroke-dasharray="null" stroke-width="10" fill="none"/>
    <rect id="svg_93" stroke="#000000" transform="rotate(-45 1736.9014892578127,1097.9411621093748) " height="370" width="370" y="912.94113" x="1551.90197" opacity="0.75" stroke-linecap="null" stroke-linejoin="null" stroke-dasharray="null" stroke-width="10" fill="none"/>
   </g>
   <g id="svg_94">
    <rect id="svg_95" stroke="#000000" transform="rotate(-45 2259.4367675781245,1097.9411621093748) " height="370" width="370" y="912.9411" x="2074.43693" opacity="0.75" stroke-linecap="null" stroke-linejoin="null" stroke-dasharray="null" stroke-width="10" fill="none"/>
    <rect id="svg_96" stroke="#000000" transform="rotate(-45 1222.794799804688,2126.155029296875) " height="370" width="370" y="1941.15513" x="1037.79496" opacity="0.75" stroke-linecap="null" stroke-linejoin="null" stroke-dasharray="null" stroke-width="10" fill="none"/>
    <rect id="svg_97" stroke="#000000" transform="rotate(-45 1484.0622558593755,1869.1015625000007) " height="370" width="370" y="1684.10159" x="1299.06247" opacity="0.75" stroke-linecap="null" stroke-linejoin="null" stroke-dasharray="null" stroke-width="10" fill="none"/>
    <rect id="svg_98" stroke="#000000" transform="rotate(-45 1741.1156005859373,1616.2620849609377) " height="370" width="370" y="1431.26211" x="1556.11599" opacity="0.75" stroke-linecap="null" stroke-linejoin="null" stroke-dasharray="null" stroke-width="10" fill="none"/>
    <rect id="svg_99" stroke="#000000" transform="rotate(-45 1998.1688232421873,1354.9946289062502) " height="370" width="370" y="1169.99462" x="1813.16944" opacity="0.75" stroke-linecap="null" stroke-linejoin="null" stroke-dasharray="null" stroke-width="10" fill="none"/>
   </g>
   <g id="svg_100">
    <rect id="svg_101" stroke="#000000" transform="rotate(-45 2524.9182128906245,1359.2086181640625) " height="370" width="370" y="1174.20861" x="2339.91843" opacity="0.75" stroke-linecap="null" stroke-linejoin="null" stroke-dasharray="null" stroke-width="10" fill="none"/>
    <rect id="svg_102" stroke="#000000" transform="rotate(-45 1488.2762451171873,2387.42236328125) " height="370" width="370" y="2202.42264" x="1303.27646" opacity="0.75" stroke-linecap="null" stroke-linejoin="null" stroke-dasharray="null" stroke-width="10" fill="none"/>
    <rect id="svg_103" stroke="#000000" transform="rotate(-45 1749.5437011718748,2130.369140625) " height="370" width="370" y="1945.3691" x="1564.54397" opacity="0.75" stroke-linecap="null" stroke-linejoin="null" stroke-dasharray="null" stroke-width="10" fill="none"/>
    <rect id="svg_104" stroke="#000000" transform="rotate(-45 2006.5970458984375,1877.5296630859373) " height="370" width="370" y="1692.52962" x="1821.59748" opacity="0.75" stroke-linecap="null" stroke-linejoin="null" stroke-dasharray="null" stroke-width="10" fill="none"/>
    <rect id="svg_105" stroke="#000000" transform="rotate(-45 2263.6503906249995,1616.2620849609373) " height="370" width="370" y="1431.26213" x="2078.65094" opacity="0.75" stroke-linecap="null" stroke-linejoin="null" stroke-dasharray="null" stroke-width="10" fill="none"/>
   </g>
  </g>
 </g>
 <g>
  <title>Layer 5</title>
  <rect id="svg_140" stroke="#000000" transform="matrix(0.14116271367205271,-0.1411627136720527,0.1411627136720527,0.14116271367205271,1286.3720885561245,-462.7378588665233) " height="1841.5144" width="1841.5144" y="2564.39234" x="-4865.72261" opacity="0.75" stroke-linecap="null" stroke-linejoin="null" stroke-dasharray="null" stroke-width="20" fill="none"/>
  <g id="svg_209">
   <g transform="rotate(90 1324.9453125000002,483.67044067382824) " id="svg_141" stroke="null">
    <rect id="svg_142" stroke="#000000" transform="matrix(0.14116271367205271,-0.1411627136720527,0.1411627136720527,0.14116271367205271,1432.6875366600714,-523.8990007412094) " height="370" width="370" y="3005.1787" x="-3405.40974" opacity="0.75" stroke-linecap="null" stroke-linejoin="null" stroke-dasharray="null" stroke-width="20" fill="none"/>
    <rect id="svg_143" stroke="#000000" transform="matrix(0.14116271367205271,-0.1411627136720527,0.1411627136720527,0.14116271367205271,1226.9280151017933,-610.1129998395678) " height="370" width="370" y="4033.39272" x="-4442.05172" opacity="0.75" stroke-linecap="null" stroke-linejoin="null" stroke-dasharray="null" stroke-width="20" fill="none"/>
    <rect id="svg_144" stroke="#000000" transform="matrix(0.14116271367205271,-0.1411627136720527,0.1411627136720527,0.14116271367205271,1278.4910843130494,-588.2621020332829) " height="370" width="370" y="3776.33919" x="-4180.78421" opacity="0.75" stroke-linecap="null" stroke-linejoin="null" stroke-dasharray="null" stroke-width="20" fill="none"/>
    <rect id="svg_145" stroke="#000000" transform="matrix(0.14116271367205271,-0.1411627136720527,0.1411627136720527,0.14116271367205271,1329.2129070154613,-566.7596278209) " height="370" width="370" y="3523.49971" x="-3923.73069" opacity="0.75" stroke-linecap="null" stroke-linejoin="null" stroke-dasharray="null" stroke-width="20" fill="none"/>
    <rect id="svg_146" stroke="#000000" transform="matrix(0.14116271367205271,-0.1411627136720527,0.1411627136720527,0.14116271367205271,1381.1244302823848,-545.7499639057829) " height="370" width="370" y="3262.23221" x="-3666.67724" opacity="0.75" stroke-linecap="null" stroke-linejoin="null" stroke-dasharray="null" stroke-width="20" fill="none"/>
   </g>
   <rect id="svg_174" stroke="#000000" transform="matrix(0.14116271367205271,-0.1411627136720527,0.1411627136720527,0.14116271367205271,1432.6875366600714,-523.8990007412094) " height="370" width="370" y="4115.80954" x="-4125.8189" opacity="0.75" stroke-linecap="null" stroke-linejoin="null" stroke-dasharray="null" stroke-width="20" fill="none"/>
   <g id="svg_203" stroke="null">
    <rect id="svg_204" stroke="#000000" transform="matrix(0.14116271367205271,-0.1411627136720527,0.1411627136720527,0.14116271367205271,1432.6875366600714,-523.8990007412094) " height="370" width="370" y="4123.31373" x="-2257.25765" opacity="0.75" stroke-linecap="null" stroke-linejoin="null" stroke-dasharray="null" stroke-width="20" fill="none"/>
    <rect id="svg_205" stroke="#000000" transform="matrix(0.14116271367205271,-0.1411627136720527,0.1411627136720527,0.14116271367205271,1226.9280151017933,-610.1129998395678) " height="370" width="370" y="5151.52776" x="-3293.89962" opacity="0.75" stroke-linecap="null" stroke-linejoin="null" stroke-dasharray="null" stroke-width="20" fill="none"/>
    <rect id="svg_206" stroke="#000000" transform="matrix(0.14116271367205271,-0.1411627136720527,0.1411627136720527,0.14116271367205271,1278.4910843130494,-588.2621020332829) " height="370" width="370" y="4894.47422" x="-3032.63211" opacity="0.75" stroke-linecap="null" stroke-linejoin="null" stroke-dasharray="null" stroke-width="20" fill="none"/>
    <rect id="svg_207" stroke="#000000" transform="matrix(0.14116271367205271,-0.1411627136720527,0.1411627136720527,0.14116271367205271,1329.2129070154613,-566.7596278209) " height="370" width="370" y="4641.63474" x="-2775.5786" opacity="0.75" stroke-linecap="null" stroke-linejoin="null" stroke-dasharray="null" stroke-width="20" fill="none"/>
    <rect id="svg_208" stroke="#000000" transform="matrix(0.14116271367205271,-0.1411627136720527,0.1411627136720527,0.14116271367205271,1381.1244302823848,-545.7499639057829) " height="370" width="370" y="4380.36725" x="-2518.52514" opacity="0.75" stroke-linecap="null" stroke-linejoin="null" stroke-dasharray="null" stroke-width="20" fill="none"/>
   </g>
  </g>
  <g stroke="null" id="svg_224">
   <g stroke="null" id="svg_225" transform="matrix(0,0.2002371556928697,-0.2002371556928697,0,1451.9854147075605,16.219601569784004) ">
    <rect stroke="#000000" id="svg_226" transform="matrix(0.14116271367205271,-0.1411627136720527,0.1411627136720527,0.14116271367205271,1432.6875366600714,-523.8990007412094) " height="370" width="370" y="8104.44552" x="5163.51317" opacity="0.75" stroke-linecap="null" stroke-linejoin="null" stroke-dasharray="null" stroke-width="20" fill="none"/>
    <rect stroke="#000000" id="svg_227" transform="matrix(0.14116271367205271,-0.1411627136720527,0.1411627136720527,0.14116271367205271,1226.9280151017933,-610.1129998395678) " height="370" width="370" y="9132.65954" x="4126.8712" opacity="0.75" stroke-linecap="null" stroke-linejoin="null" stroke-dasharray="null" stroke-width="20" fill="none"/>
    <rect stroke="#000000" id="svg_228" transform="matrix(0.14116271367205271,-0.1411627136720527,0.1411627136720527,0.14116271367205271,1278.4910843130494,-588.2621020332829) " height="370" width="370" y="8875.606" x="4388.1387" opacity="0.75" stroke-linecap="null" stroke-linejoin="null" stroke-dasharray="null" stroke-width="20" fill="none"/>
    <rect stroke="#000000" id="svg_229" transform="matrix(0.14116271367205271,-0.1411627136720527,0.1411627136720527,0.14116271367205271,1329.2129070154613,-566.7596278209) " height="370" width="370" y="8622.76652" x="4645.19222" opacity="0.75" stroke-linecap="null" stroke-linejoin="null" stroke-dasharray="null" stroke-width="20" fill="none"/>
    <rect stroke="#000000" id="svg_230" transform="matrix(0.14116271367205271,-0.1411627136720527,0.1411627136720527,0.14116271367205271,1381.1244302823848,-545.7499639057829) " height="370" width="370" y="8361.49903" x="4902.24568" opacity="0.75" stroke-linecap="null" stroke-linejoin="null" stroke-dasharray="null" stroke-width="20" fill="none"/>
   </g>
   <rect stroke="#000000" id="svg_231" transform="matrix(0.028266020275578806,-0.0282660202755788,0.0282660202755788,0.028266020275578806,1353.7294506151773,120.07613648548883) " height="370" width="370" y="12378.27015" x="-8105.59285" opacity="0.75" stroke-linecap="null" stroke-linejoin="null" stroke-dasharray="null" stroke-width="20" fill="none"/>
   <g stroke="null" id="svg_232">
    <rect stroke="#000000" id="svg_233" transform="matrix(0.028266020275578806,-0.0282660202755788,0.0282660202755788,0.028266020275578806,1353.7294506151773,120.07613648548883) " height="370" width="370" y="12385.77435" x="-6237.03159" opacity="0.75" stroke-linecap="null" stroke-linejoin="null" stroke-dasharray="null" stroke-width="20" fill="none"/>
    <rect stroke="#000000" id="svg_234" transform="matrix(0.028266020275578806,-0.0282660202755788,0.0282660202755788,0.028266020275578806,1312.5287492616221,102.81289052512588) " height="370" width="370" y="13413.98837" x="-7273.67357" opacity="0.75" stroke-linecap="null" stroke-linejoin="null" stroke-dasharray="null" stroke-width="20" fill="none"/>
    <rect stroke="#000000" id="svg_235" transform="matrix(0.028266020275578806,-0.0282660202755788,0.0282660202755788,0.028266020275578806,1322.8535915792786,107.18825215119196) " height="370" width="370" y="13156.93484" x="-7012.40606" opacity="0.75" stroke-linecap="null" stroke-linejoin="null" stroke-dasharray="null" stroke-width="20" fill="none"/>
    <rect stroke="#000000" id="svg_236" transform="matrix(0.028266020275578806,-0.0282660202755788,0.0282660202755788,0.028266020275578806,1333.0099850887675,111.49384642783878) " height="370" width="370" y="12904.09535" x="-6755.35254" opacity="0.75" stroke-linecap="null" stroke-linejoin="null" stroke-dasharray="null" stroke-width="20" fill="none"/>
    <rect stroke="#000000" id="svg_237" transform="matrix(0.028266020275578806,-0.0282660202755788,0.0282660202755788,0.028266020275578806,1343.4046008554205,115.70076177226494) " height="370" width="370" y="12642.82786" x="-6498.29908" opacity="0.75" stroke-linecap="null" stroke-linejoin="null" stroke-dasharray="null" stroke-width="20" fill="none"/>
   </g>
  </g>
  <g id="svg_238" stroke="null">
   <g id="svg_239" stroke="null" transform="matrix(0,0.2002371556928697,-0.2002371556928697,0,1451.9854147075605,16.219601569784004) ">
    <rect id="svg_240" stroke="#000000" transform="matrix(0.14116271367205271,-0.1411627136720527,0.1411627136720527,0.14116271367205271,1432.6875366600714,-523.8990007412094) " height="370" width="370" y="6193.1251" x="5200.99021" opacity="0.75" stroke-linecap="null" stroke-linejoin="null" stroke-dasharray="null" stroke-width="20" fill="none"/>
    <rect id="svg_241" stroke="#000000" transform="matrix(0.14116271367205271,-0.1411627136720527,0.1411627136720527,0.14116271367205271,1226.9280151017933,-610.1129998395678) " height="370" width="370" y="7221.33912" x="4164.34824" opacity="0.75" stroke-linecap="null" stroke-linejoin="null" stroke-dasharray="null" stroke-width="20" fill="none"/>
    <rect id="svg_242" stroke="#000000" transform="matrix(0.14116271367205271,-0.1411627136720527,0.1411627136720527,0.14116271367205271,1278.4910843130494,-588.2621020332829) " height="370" width="370" y="6964.28559" x="4425.61575" opacity="0.75" stroke-linecap="null" stroke-linejoin="null" stroke-dasharray="null" stroke-width="20" fill="none"/>
    <rect id="svg_243" stroke="#000000" transform="matrix(0.14116271367205271,-0.1411627136720527,0.1411627136720527,0.14116271367205271,1329.2129070154613,-566.7596278209) " height="370" width="370" y="6711.44611" x="4682.66927" opacity="0.75" stroke-linecap="null" stroke-linejoin="null" stroke-dasharray="null" stroke-width="20" fill="none"/>
    <rect id="svg_244" stroke="#000000" transform="matrix(0.14116271367205271,-0.1411627136720527,0.1411627136720527,0.14116271367205271,1381.1244302823848,-545.7499639057829) " height="370" width="370" y="6450.17861" x="4939.72272" opacity="0.75" stroke-linecap="null" stroke-linejoin="null" stroke-dasharray="null" stroke-width="20" fill="none"/>
   </g>
   <rect id="svg_245" stroke="#000000" transform="matrix(0.028266020275578806,-0.0282660202755788,0.0282660202755788,0.028266020275578806,1353.7294506151773,120.07613648548883) " height="370" width="370" y="12415.7471" x="-6194.27238" opacity="0.75" stroke-linecap="null" stroke-linejoin="null" stroke-dasharray="null" stroke-width="20" fill="none"/>
   <g id="svg_246" stroke="null">
    <rect id="svg_247" stroke="#000000" transform="matrix(0.028266020275578806,-0.0282660202755788,0.0282660202755788,0.028266020275578806,1353.7294506151773,120.07613648548883) " height="370" width="370" y="12423.2513" x="-4325.71113" opacity="0.75" stroke-linecap="null" stroke-linejoin="null" stroke-dasharray="null" stroke-width="20" fill="none"/>
    <rect id="svg_248" stroke="#000000" transform="matrix(0.028266020275578806,-0.0282660202755788,0.0282660202755788,0.028266020275578806,1312.5287492616221,102.81289052512588) " height="370" width="370" y="13451.46532" x="-5362.3531" opacity="0.75" stroke-linecap="null" stroke-linejoin="null" stroke-dasharray="null" stroke-width="20" fill="none"/>
    <rect id="svg_249" stroke="#000000" transform="matrix(0.028266020275578806,-0.0282660202755788,0.0282660202755788,0.028266020275578806,1322.8535915792786,107.18825215119196) " height="370" width="370" y="13194.41179" x="-5101.08559" opacity="0.75" stroke-linecap="null" stroke-linejoin="null" stroke-dasharray="null" stroke-width="20" fill="none"/>
    <rect id="svg_250" stroke="#000000" transform="matrix(0.028266020275578806,-0.0282660202755788,0.0282660202755788,0.028266020275578806,1333.0099850887675,111.49384642783878) " height="370" width="370" y="12941.57231" x="-4844.03207" opacity="0.75" stroke-linecap="null" stroke-linejoin="null" stroke-dasharray="null" stroke-width="20" fill="none"/>
    <rect id="svg_251" stroke="#000000" transform="matrix(0.028266020275578806,-0.0282660202755788,0.0282660202755788,0.028266020275578806,1343.4046008554205,115.70076177226494) " height="370" width="370" y="12680.30481" x="-4586.97862" opacity="0.75" stroke-linecap="null" stroke-linejoin="null" stroke-dasharray="null" stroke-width="20" fill="none"/>
   </g>
  </g>
 </g>
 <g display="none">
  <title>elem</title>
  <g stroke="null" id="svg_107">
   <rect stroke="#000000" id="svg_108" transform="matrix(0.14116271367205271,-0.1411627136720527,0.1411627136720527,0.14116271367205271,1286.3720885561245,-462.7378588665233) " height="1841.5144" width="1841.5144" y="4432.9537" x="-3027.1783" opacity="0.75" stroke-linecap="null" stroke-linejoin="null" stroke-dasharray="null" stroke-width="20" fill="none"/>
   <g stroke="null" id="svg_109">
    <rect stroke="#000000" id="svg_110" transform="matrix(0.14116271367205271,-0.1411627136720527,0.1411627136720527,0.14116271367205271,1432.6875366600714,-523.8990007412094) " height="370" width="370" y="4130.81808" x="-2294.77889" opacity="0.75" stroke-linecap="null" stroke-linejoin="null" stroke-dasharray="null" stroke-width="20" fill="none"/>
    <rect stroke="#000000" id="svg_111" transform="matrix(0.14116271367205271,-0.1411627136720527,0.1411627136720527,0.14116271367205271,1226.9280151017933,-610.1129998395678) " height="370" width="370" y="5159.03211" x="-3331.42087" opacity="0.75" stroke-linecap="null" stroke-linejoin="null" stroke-dasharray="null" stroke-width="20" fill="none"/>
    <rect stroke="#000000" id="svg_112" transform="matrix(0.14116271367205271,-0.1411627136720527,0.1411627136720527,0.14116271367205271,1278.4910843130494,-588.2621020332829) " height="370" width="370" y="4901.97857" x="-3070.15336" opacity="0.75" stroke-linecap="null" stroke-linejoin="null" stroke-dasharray="null" stroke-width="20" fill="none"/>
    <rect stroke="#000000" id="svg_113" transform="matrix(0.14116271367205271,-0.1411627136720527,0.1411627136720527,0.14116271367205271,1329.2129070154613,-566.7596278209) " height="370" width="370" y="4649.13909" x="-2813.09984" opacity="0.75" stroke-linecap="null" stroke-linejoin="null" stroke-dasharray="null" stroke-width="20" fill="none"/>
    <rect stroke="#000000" id="svg_114" transform="matrix(0.14116271367205271,-0.1411627136720527,0.1411627136720527,0.14116271367205271,1381.1244302823848,-545.7499639057829) " height="370" width="370" y="4387.87159" x="-2556.04638" opacity="0.75" stroke-linecap="null" stroke-linejoin="null" stroke-dasharray="null" stroke-width="20" fill="none"/>
   </g>
   <g stroke="null" id="svg_115">
    <rect stroke="#000000" id="svg_116" transform="matrix(0.14116271367205271,-0.1411627136720527,0.1411627136720527,0.14116271367205271,1410.8366094373037,-472.33592943938834) " height="370" width="370" y="4392.08558" x="-2037.72539" opacity="0.75" stroke-linecap="null" stroke-linejoin="null" stroke-dasharray="null" stroke-width="20" fill="none"/>
    <rect stroke="#000000" id="svg_117" transform="matrix(0.14116271367205271,-0.1411627136720527,0.1411627136720527,0.14116271367205271,1205.0770878790256,-558.5499285377466) " height="370" width="370" y="5420.2996" x="-3074.36736" opacity="0.75" stroke-linecap="null" stroke-linejoin="null" stroke-dasharray="null" stroke-width="20" fill="none"/>
    <rect stroke="#000000" id="svg_118" transform="matrix(0.14116271367205271,-0.1411627136720527,0.1411627136720527,0.14116271367205271,1256.6401642279172,-536.6990134996851) " height="370" width="370" y="5163.24607" x="-2813.09985" opacity="0.75" stroke-linecap="null" stroke-linejoin="null" stroke-dasharray="null" stroke-width="20" fill="none"/>
    <rect stroke="#000000" id="svg_119" transform="matrix(0.14116271367205271,-0.1411627136720527,0.1411627136720527,0.14116271367205271,1307.3619754847496,-515.1965547346701) " height="370" width="370" y="4910.40659" x="-2556.04633" opacity="0.75" stroke-linecap="null" stroke-linejoin="null" stroke-dasharray="null" stroke-width="20" fill="none"/>
    <rect stroke="#000000" id="svg_120" transform="matrix(0.14116271367205271,-0.1411627136720527,0.1411627136720527,0.14116271367205271,1359.2735073675613,-494.18689438837066) " height="370" width="370" y="4649.13909" x="-2298.99288" opacity="0.75" stroke-linecap="null" stroke-linejoin="null" stroke-dasharray="null" stroke-width="20" fill="none"/>
   </g>
   <g stroke="null" id="svg_121">
    <rect stroke="#000000" id="svg_122" transform="matrix(0.14116271367205271,-0.1411627136720527,0.1411627136720527,0.14116271367205271,1389.5805304062267,-421.0192927026827) " height="370" width="370" y="4649.13909" x="-1780.67188" opacity="0.75" stroke-linecap="null" stroke-linejoin="null" stroke-dasharray="null" stroke-width="20" fill="none"/>
    <rect stroke="#000000" id="svg_123" transform="matrix(0.14116271367205271,-0.1411627136720527,0.1411627136720527,0.14116271367205271,1183.8210345687996,-507.2332418901202) " height="370" width="370" y="5677.35311" x="-2817.31385" opacity="0.75" stroke-linecap="null" stroke-linejoin="null" stroke-dasharray="null" stroke-width="20" fill="none"/>
    <rect stroke="#000000" id="svg_124" transform="matrix(0.14116271367205271,-0.1411627136720527,0.1411627136720527,0.14116271367205271,1235.3841094394384,-485.3823060514643) " height="370" width="370" y="5420.29957" x="-2556.04634" opacity="0.75" stroke-linecap="null" stroke-linejoin="null" stroke-dasharray="null" stroke-width="20" fill="none"/>
    <rect stroke="#000000" id="svg_125" transform="matrix(0.14116271367205271,-0.1411627136720527,0.1411627136720527,0.14116271367205271,1286.1059206962707,-463.87984728644926) " height="370" width="370" y="5167.46009" x="-2298.99282" opacity="0.75" stroke-linecap="null" stroke-linejoin="null" stroke-dasharray="null" stroke-width="20" fill="none"/>
    <rect stroke="#000000" id="svg_126" transform="matrix(0.14116271367205271,-0.1411627136720527,0.1411627136720527,0.14116271367205271,1338.0174426117555,-442.87022318811194) " height="370" width="370" y="4906.1926" x="-2041.93937" opacity="0.75" stroke-linecap="null" stroke-linejoin="null" stroke-dasharray="null" stroke-width="20" fill="none"/>
   </g>
   <g stroke="null" id="svg_127">
    <rect stroke="#000000" id="svg_128" transform="matrix(0.14116271367205271,-0.1411627136720527,0.1411627136720527,0.14116271367205271,1368.57087110521,-369.1077461116297) " height="370" width="370" y="4906.19257" x="-1519.4044" opacity="0.75" stroke-linecap="null" stroke-linejoin="null" stroke-dasharray="null" stroke-width="20" fill="none"/>
    <rect stroke="#000000" id="svg_129" transform="matrix(0.14116271367205271,-0.1411627136720527,0.1411627136720527,0.14116271367205271,1162.8113968075036,-455.32170422111164) " height="370" width="370" y="5934.4066" x="-2556.04637" opacity="0.75" stroke-linecap="null" stroke-linejoin="null" stroke-dasharray="null" stroke-width="20" fill="none"/>
    <rect stroke="#000000" id="svg_130" transform="matrix(0.14116271367205271,-0.1411627136720527,0.1411627136720527,0.14116271367205271,1214.3744401710946,-433.4707957083733) " height="370" width="370" y="5677.35306" x="-2294.77887" opacity="0.75" stroke-linecap="null" stroke-linejoin="null" stroke-dasharray="null" stroke-width="20" fill="none"/>
    <rect stroke="#000000" id="svg_131" transform="matrix(0.14116271367205271,-0.1411627136720527,0.1411627136720527,0.14116271367205271,1265.096251427927,-411.96833694335817) " height="370" width="370" y="5424.51358" x="-2037.72535" opacity="0.75" stroke-linecap="null" stroke-linejoin="null" stroke-dasharray="null" stroke-width="20" fill="none"/>
    <rect stroke="#000000" id="svg_132" transform="matrix(0.14116271367205271,-0.1411627136720527,0.1411627136720527,0.14116271367205271,1317.0077590681406,-390.95874730857406) " height="370" width="370" y="5163.24609" x="-1780.67189" opacity="0.75" stroke-linecap="null" stroke-linejoin="null" stroke-dasharray="null" stroke-width="20" fill="none"/>
   </g>
   <g stroke="null" id="svg_133">
    <rect stroke="#000000" id="svg_134" transform="matrix(0.14116271367205271,-0.1411627136720527,0.1411627136720527,0.14116271367205271,1347.2127319008607,-316.35495492295536) " height="370" width="370" y="5167.46008" x="-1253.9229" opacity="0.75" stroke-linecap="null" stroke-linejoin="null" stroke-dasharray="null" stroke-width="20" fill="none"/>
    <rect stroke="#000000" id="svg_135" transform="matrix(0.14116271367205271,-0.1411627136720527,0.1411627136720527,0.14116271367205271,1141.4532834508193,-402.5689237388907) " height="370" width="370" y="6195.67411" x="-2290.56488" opacity="0.75" stroke-linecap="null" stroke-linejoin="null" stroke-dasharray="null" stroke-width="20" fill="none"/>
    <rect stroke="#000000" id="svg_136" transform="matrix(0.14116271367205271,-0.1411627136720527,0.1411627136720527,0.14116271367205271,1193.0163181985222,-380.7180116573346) " height="370" width="370" y="5938.62057" x="-2029.29737" opacity="0.75" stroke-linecap="null" stroke-linejoin="null" stroke-dasharray="null" stroke-width="20" fill="none"/>
    <rect stroke="#000000" id="svg_137" transform="matrix(0.14116271367205271,-0.1411627136720527,0.1411627136720527,0.14116271367205271,1243.7380979483069,-359.21558021823705) " height="370" width="370" y="5685.78109" x="-1772.24385" opacity="0.75" stroke-linecap="null" stroke-linejoin="null" stroke-dasharray="null" stroke-width="20" fill="none"/>
    <rect stroke="#000000" id="svg_138" transform="matrix(0.14116271367205271,-0.1411627136720527,0.1411627136720527,0.14116271367205271,1295.649642754951,-338.2059252251645) " height="370" width="370" y="5424.5136" x="-1515.19039" opacity="0.75" stroke-linecap="null" stroke-linejoin="null" stroke-dasharray="null" stroke-width="20" fill="none"/>
   </g>
  </g>
  <g id="svg_210">
   <g id="svg_211" transform="rotate(90 1939.352294921875,316.2975463867189) " stroke="null">
    <rect id="svg_212" stroke="#000000" transform="matrix(0.14116271367205271,-0.1411627136720527,0.1411627136720527,0.14116271367205271,1432.6875366600714,-523.8990007412094) " height="370" width="370" y="4588.57815" x="-636.33678" opacity="0.75" stroke-linecap="null" stroke-linejoin="null" stroke-dasharray="null" stroke-width="20" fill="none"/>
    <rect id="svg_213" stroke="#000000" transform="matrix(0.14116271367205271,-0.1411627136720527,0.1411627136720527,0.14116271367205271,1226.9280151017933,-610.1129998395678) " height="370" width="370" y="5616.79218" x="-1672.97875" opacity="0.75" stroke-linecap="null" stroke-linejoin="null" stroke-dasharray="null" stroke-width="20" fill="none"/>
    <rect id="svg_214" stroke="#000000" transform="matrix(0.14116271367205271,-0.1411627136720527,0.1411627136720527,0.14116271367205271,1278.4910843130494,-588.2621020332829) " height="370" width="370" y="5359.73864" x="-1411.71124" opacity="0.75" stroke-linecap="null" stroke-linejoin="null" stroke-dasharray="null" stroke-width="20" fill="none"/>
    <rect id="svg_215" stroke="#000000" transform="matrix(0.14116271367205271,-0.1411627136720527,0.1411627136720527,0.14116271367205271,1329.2129070154613,-566.7596278209) " height="370" width="370" y="5106.89916" x="-1154.65772" opacity="0.75" stroke-linecap="null" stroke-linejoin="null" stroke-dasharray="null" stroke-width="20" fill="none"/>
    <rect id="svg_216" stroke="#000000" transform="matrix(0.14116271367205271,-0.1411627136720527,0.1411627136720527,0.14116271367205271,1381.1244302823848,-545.7499639057829) " height="370" width="370" y="4845.63167" x="-897.60427" opacity="0.75" stroke-linecap="null" stroke-linejoin="null" stroke-dasharray="null" stroke-width="20" fill="none"/>
   </g>
   <rect id="svg_217" stroke="#000000" transform="matrix(0.14116271367205271,-0.1411627136720527,0.1411627136720527,0.14116271367205271,1432.6875366600714,-523.8990007412094) " height="370" width="370" y="5699.20899" x="-1356.74594" opacity="0.75" stroke-linecap="null" stroke-linejoin="null" stroke-dasharray="null" stroke-width="20" fill="none"/>
   <g id="svg_218" stroke="null">
    <rect id="svg_219" stroke="#000000" transform="matrix(0.14116271367205271,-0.1411627136720527,0.1411627136720527,0.14116271367205271,1432.6875366600714,-523.8990007412094) " height="370" width="370" y="5706.71319" x="511.81532" opacity="0.75" stroke-linecap="null" stroke-linejoin="null" stroke-dasharray="null" stroke-width="20" fill="none"/>
    <rect id="svg_220" stroke="#000000" transform="matrix(0.14116271367205271,-0.1411627136720527,0.1411627136720527,0.14116271367205271,1226.9280151017933,-610.1129998395678) " height="370" width="370" y="6734.92721" x="-524.82666" opacity="0.75" stroke-linecap="null" stroke-linejoin="null" stroke-dasharray="null" stroke-width="20" fill="none"/>
    <rect id="svg_221" stroke="#000000" transform="matrix(0.14116271367205271,-0.1411627136720527,0.1411627136720527,0.14116271367205271,1278.4910843130494,-588.2621020332829) " height="370" width="370" y="6477.87368" x="-263.55915" opacity="0.75" stroke-linecap="null" stroke-linejoin="null" stroke-dasharray="null" stroke-width="20" fill="none"/>
    <rect id="svg_222" stroke="#000000" transform="matrix(0.14116271367205271,-0.1411627136720527,0.1411627136720527,0.14116271367205271,1329.2129070154613,-566.7596278209) " height="370" width="370" y="6225.0342" x="-6.50563" opacity="0.75" stroke-linecap="null" stroke-linejoin="null" stroke-dasharray="null" stroke-width="20" fill="none"/>
    <rect id="svg_223" stroke="#000000" transform="matrix(0.14116271367205271,-0.1411627136720527,0.1411627136720527,0.14116271367205271,1381.1244302823848,-545.7499639057829) " height="370" width="370" y="5963.7667" x="250.54783" opacity="0.75" stroke-linecap="null" stroke-linejoin="null" stroke-dasharray="null" stroke-width="20" fill="none"/>
   </g>
  </g>
 </g>
</svg>