<svg width="2970" height="2100" xmlns="http://www.w3.org/2000/svg" xmlns:svg="http://www.w3.org/2000/svg" xmlns:xlink="http://www.w3.org/1999/xlink">
 <!-- Created with SVG-edit - http://svg-edit.googlecode.com/ -->
 <g display="none">
  <title>Layer 1</title>
  <text fill="#000000" stroke-width="0" x="532.79411" y="1733.89519" id="svg_20" font-size="24" font-family="serif" text-anchor="middle" xml:space="preserve" transform="matrix(7.0232454569232905,0,0,7.0232454569232905,-2249.6256798329737,-10211.489150980788) " stroke="#000000">T = 447,933.7664*S</text>
  <g id="svg_6" stroke="null">
   <text fill="#000000" stroke-width="0" x="506.99161" y="1553.89635" id="svg_3" font-size="24" font-family="serif" text-anchor="middle" xml:space="preserve" transform="matrix(7.0232454569232905,0,0,7.0232454569232905,-2249.6256798329737,-10211.489150980788) " stroke="#000000">T = S * S/T</text>
   <text fill="#000000" stroke-width="0" x="566.92911" y="1538.69323" font-size="24" font-family="serif" text-anchor="middle" xml:space="preserve" id="svg_4" transform="matrix(7.0232454569232905,0,0,7.0232454569232905,-2249.6256798329737,-10211.489150980788) " stroke="#000000">2</text>
   <text fill="#000000" stroke-width="0" x="543.25723" y="1537.95885" font-size="24" font-family="serif" text-anchor="middle" xml:space="preserve" id="svg_5" transform="matrix(7.0232454569232905,0,0,7.0232454569232905,-2249.6256798329737,-10211.489150980788) " stroke="#000000">2</text>
   <text fill="#000000" stroke-width="0" x="588.99161" y="1549.89635" id="svg_7" font-size="24" font-family="serif" text-anchor="middle" xml:space="preserve" transform="matrix(7.0232454569232905,0,0,7.0232454569232905,-2249.6256798329737,-10211.489150980788) " stroke="#000000">*c</text>
   <text fill="#000000" stroke-width="0" x="608.72598" y="1539.69323" font-size="24" font-family="serif" text-anchor="middle" xml:space="preserve" id="svg_8" transform="matrix(7.0232454569232905,0,0,7.0232454569232905,-2249.6256798329737,-10211.489150980788) " stroke="#000000">2</text>
  </g>
  <g id="svg_15" stroke="null">
   <g id="svg_17" stroke="null">
    <text fill="#000000" stroke-width="0" x="510.5163" y="1679.54926" id="svg_12" font-size="24" font-family="serif" text-anchor="middle" xml:space="preserve" transform="matrix(7.0232454569232905,0,0,7.0232454569232905,-2249.6256798329737,-10211.489150980788) " stroke="#000000">T=S*V</text>
    <text fill="#000000" stroke-width="0" x="559.5163" y="1679.54926" id="svg_13" font-size="24" font-family="serif" text-anchor="middle" xml:space="preserve" transform="matrix(7.0232454569232905,0,0,7.0232454569232905,-2249.6256798329737,-10211.489150980788) " stroke="#000000">c</text>
    <text fill="#000000" stroke-width="0" x="537.5163" y="1662.54926" id="svg_14" font-size="24" font-family="serif" text-anchor="middle" xml:space="preserve" transform="matrix(7.0232454569232905,0,0,7.0232454569232905,-2249.6256798329737,-10211.489150980788) " stroke="#000000">3</text>
    <text fill="#000000" stroke-width="0" x="566.5163" y="1662.54926" id="svg_16" font-size="24" font-family="serif" text-anchor="middle" xml:space="preserve" transform="matrix(7.0232454569232905,0,0,7.0232454569232905,-2249.6256798329737,-10211.489150980788) " stroke="#000000">____</text>
   </g>
   <text fill="#000000" stroke-width="0" x="569.5163" y="1671.54926" font-size="24" font-family="serif" text-anchor="middle" xml:space="preserve" id="svg_19" transform="matrix(7.0232454569232905,0,0,7.0232454569232905,-2249.6256798329737,-10211.489150980788) " stroke="#000000">2</text>
  </g>
  <g id="svg_21" stroke="null">
   <text fill="#000000" stroke-width="0" x="527.34661" y="1618.6776" id="svg_9" font-size="24" font-family="serif" text-anchor="middle" xml:space="preserve" transform="matrix(7.0232454569232905,0,0,7.0232454569232905,-2249.6256798329737,-10211.489150980788) " stroke="#000000">T= S c</text>
   <text fill="#000000" stroke-width="0" x="514.20598" y="1600.47448" id="svg_10" font-size="24" font-family="serif" text-anchor="middle" xml:space="preserve" transform="matrix(7.0232454569232905,0,0,7.0232454569232905,-2249.6256798329737,-10211.489150980788) " stroke="#000000">3</text>
   <text fill="#000000" stroke-width="0" x="546.34661" y="1598.6776" font-size="24" font-family="serif" text-anchor="middle" xml:space="preserve" id="svg_11" transform="matrix(7.0232454569232905,0,0,7.0232454569232905,-2249.6256798329737,-10211.489150980788) " stroke="#000000">3</text>
   <text fill="#000000" stroke-width="0" x="564.34661" y="1606.6776" font-size="24" font-family="serif" text-anchor="middle" xml:space="preserve" id="svg_18" transform="matrix(7.0232454569232905,0,0,7.0232454569232905,-2249.6256798329737,-10211.489150980788) " stroke="#000000">2</text>
  </g>
  <g id="svg_22" stroke="null">
   <text fill="#000000" stroke-width="0" x="526.17692" y="1493.46827" id="svg_1" font-size="24" font-family="serif" text-anchor="middle" xml:space="preserve" transform="matrix(7.0232454569232905,0,0,7.0232454569232905,-2249.6256798329737,-10211.489150980788) " stroke="#000000">E = m c</text>
   <text fill="#000000" stroke-width="0" x="571.17692" y="1482.46827" id="svg_2" font-size="24" font-family="serif" text-anchor="middle" xml:space="preserve" transform="matrix(7.0232454569232905,0,0,7.0232454569232905,-2249.6256798329737,-10211.489150980788) " stroke="#000000">2</text>
  </g>
 </g>
 <g>
  <title>Layer 2</title>
  <image stroke="null" xlink:href="http://www.modernvastu.com/uploads/1/1/8/1/11819849/1334912801.png" opacity="0.5" id="svg_34" height="2123.65425" width="2123.65425" y="57.56379" x="392.76535"/>
  <g transform="rotate(90.49820709228516 1479.975341796875,1132.1317138671875) " id="svg_36">
   <rect stroke="#000000" id="svg_31" opacity="0.5" height="358.18934" width="358.18934" y="778.15637" x="1142.85595" stroke-width="5" fill="#7f7f7f"/>
   <rect opacity="0.5" stroke="#000000" id="svg_23" height="1951.07821" width="1951.07821" y="57.56378" x="409.62139" stroke-width="5" fill="#7f7f7f"/>
   <rect stroke="#000000" id="svg_25" opacity="0.5" height="712.16467" width="712.16467" y="57.56379" x="401.19341" stroke-width="5" fill="#7f7f7f"/>
   <rect id="svg_26" stroke="#000000" opacity="0.5" height="712.16467" width="712.16467" y="57.56379" x="1121.786" stroke-width="5" fill="#7f7f7f"/>
   <rect id="svg_27" stroke="#000000" opacity="0.5" height="712.16467" width="712.16467" y="49.13581" x="1846.59257" stroke-width="5" fill="#7f7f7f"/>
   <rect id="svg_28" stroke="#000000" opacity="0.5" height="712.16467" width="712.16467" y="773.94238" x="418.04941" stroke-width="5" fill="#7f7f7f"/>
   <rect id="svg_29" stroke="#000000" opacity="0.5" height="712.16467" width="712.16467" y="1502.96294" x="418.04941" stroke-width="5" fill="#7f7f7f"/>
   <rect id="svg_32" stroke="#000000" opacity="0.5" height="358.18934" width="358.18934" y="1144.77367" x="1147.06995" stroke-width="5" fill="#7f7f7f"/>
   <rect id="svg_33" stroke="#000000" opacity="0.5" height="358.18934" width="358.18934" y="782.37038" x="1509.47323" stroke-width="5" fill="#7f7f7f"/>
  </g>
 </g>
</svg>